<mxfile host="app.diagrams.net" agent="Mozilla/5.0 (Macintosh; Intel Mac OS X 10_15_7) AppleWebKit/537.36 (KHTML, like Gecko) Chrome/125.0.0.0 Safari/537.36" version="24.7.5">
  <diagram name="第 1 页" id="Z2o1asCWV8e9srhPkvNo">
    <mxGraphModel dx="1026" dy="650" grid="1" gridSize="10" guides="1" tooltips="1" connect="1" arrows="1" fold="1" page="1" pageScale="1" pageWidth="827" pageHeight="1169" math="0" shadow="0">
      <root>
        <mxCell id="0" />
        <mxCell id="1" parent="0" />
        <mxCell id="W26PCS96gPGYHtIzpLVQ-2" value="8 x Transformers" style="rounded=1;whiteSpace=wrap;html=1;" vertex="1" parent="1">
          <mxGeometry x="30" y="450" width="120" height="40" as="geometry" />
        </mxCell>
        <mxCell id="W26PCS96gPGYHtIzpLVQ-5" value="" style="rounded=0;whiteSpace=wrap;html=1;" vertex="1" parent="1">
          <mxGeometry x="35" y="340" width="10" height="60" as="geometry" />
        </mxCell>
        <mxCell id="W26PCS96gPGYHtIzpLVQ-6" value="" style="rounded=0;whiteSpace=wrap;html=1;" vertex="1" parent="1">
          <mxGeometry x="51" y="340" width="10" height="60" as="geometry" />
        </mxCell>
        <mxCell id="W26PCS96gPGYHtIzpLVQ-10" value="" style="rounded=0;whiteSpace=wrap;html=1;" vertex="1" parent="1">
          <mxGeometry x="65" y="340" width="10" height="60" as="geometry" />
        </mxCell>
        <mxCell id="W26PCS96gPGYHtIzpLVQ-11" value="" style="rounded=0;whiteSpace=wrap;html=1;" vertex="1" parent="1">
          <mxGeometry x="81" y="340" width="10" height="60" as="geometry" />
        </mxCell>
        <mxCell id="W26PCS96gPGYHtIzpLVQ-12" value="" style="rounded=0;whiteSpace=wrap;html=1;" vertex="1" parent="1">
          <mxGeometry x="125" y="340" width="10" height="60" as="geometry" />
        </mxCell>
        <mxCell id="W26PCS96gPGYHtIzpLVQ-13" value="..." style="text;html=1;align=center;verticalAlign=middle;resizable=0;points=[];autosize=1;strokeColor=none;fillColor=none;" vertex="1" parent="1">
          <mxGeometry x="91" y="355" width="30" height="30" as="geometry" />
        </mxCell>
        <mxCell id="W26PCS96gPGYHtIzpLVQ-15" value="" style="endArrow=classic;html=1;rounded=0;exitX=0.425;exitY=-0.05;exitDx=0;exitDy=0;exitPerimeter=0;" edge="1" parent="1">
          <mxGeometry width="50" height="50" relative="1" as="geometry">
            <mxPoint x="87" y="449" as="sourcePoint" />
            <mxPoint x="87" y="411" as="targetPoint" />
          </mxGeometry>
        </mxCell>
        <mxCell id="W26PCS96gPGYHtIzpLVQ-16" value="" style="endArrow=classic;html=1;rounded=0;" edge="1" parent="1">
          <mxGeometry width="50" height="50" relative="1" as="geometry">
            <mxPoint x="140" y="369.5" as="sourcePoint" />
            <mxPoint x="190" y="369.5" as="targetPoint" />
          </mxGeometry>
        </mxCell>
        <mxCell id="W26PCS96gPGYHtIzpLVQ-17" value="Encoder" style="shape=trapezoid;perimeter=trapezoidPerimeter;whiteSpace=wrap;html=1;fixedSize=1;rotation=90;" vertex="1" parent="1">
          <mxGeometry x="190" y="340" width="90" height="60" as="geometry" />
        </mxCell>
        <mxCell id="W26PCS96gPGYHtIzpLVQ-18" value="Decoder" style="shape=trapezoid;perimeter=trapezoidPerimeter;whiteSpace=wrap;html=1;fixedSize=1;rotation=-90;" vertex="1" parent="1">
          <mxGeometry x="640" y="340" width="90" height="60" as="geometry" />
        </mxCell>
        <mxCell id="W26PCS96gPGYHtIzpLVQ-19" value="" style="shape=cube;whiteSpace=wrap;html=1;boundedLbl=1;backgroundOutline=1;darkOpacity=0.05;darkOpacity2=0.1;" vertex="1" parent="1">
          <mxGeometry x="300" y="330" width="90" height="80" as="geometry" />
        </mxCell>
        <mxCell id="W26PCS96gPGYHtIzpLVQ-20" value="" style="shape=cube;whiteSpace=wrap;html=1;boundedLbl=1;backgroundOutline=1;darkOpacity=0.05;darkOpacity2=0.1;" vertex="1" parent="1">
          <mxGeometry x="490" y="330" width="90" height="80" as="geometry" />
        </mxCell>
        <mxCell id="W26PCS96gPGYHtIzpLVQ-22" value="z&lt;sub&gt;q&lt;/sub&gt;" style="text;html=1;align=center;verticalAlign=middle;resizable=0;points=[];autosize=1;strokeColor=none;fillColor=none;" vertex="1" parent="1">
          <mxGeometry x="515" y="325" width="40" height="30" as="geometry" />
        </mxCell>
        <mxCell id="W26PCS96gPGYHtIzpLVQ-24" value="z" style="text;html=1;align=center;verticalAlign=middle;resizable=0;points=[];autosize=1;strokeColor=none;fillColor=none;" vertex="1" parent="1">
          <mxGeometry x="330" y="325" width="30" height="30" as="geometry" />
        </mxCell>
        <mxCell id="W26PCS96gPGYHtIzpLVQ-25" style="edgeStyle=orthogonalEdgeStyle;rounded=0;orthogonalLoop=1;jettySize=auto;html=1;entryX=-0.044;entryY=0.5;entryDx=0;entryDy=0;entryPerimeter=0;" edge="1" parent="1" source="W26PCS96gPGYHtIzpLVQ-19" target="W26PCS96gPGYHtIzpLVQ-20">
          <mxGeometry relative="1" as="geometry" />
        </mxCell>
        <mxCell id="W26PCS96gPGYHtIzpLVQ-26" value="argmin|| z-z_i ||" style="text;html=1;align=center;verticalAlign=middle;resizable=0;points=[];autosize=1;strokeColor=none;fillColor=none;" vertex="1" parent="1">
          <mxGeometry x="390" y="340" width="100" height="30" as="geometry" />
        </mxCell>
        <mxCell id="W26PCS96gPGYHtIzpLVQ-27" value="" style="endArrow=classic;html=1;rounded=0;" edge="1" parent="1">
          <mxGeometry width="50" height="50" relative="1" as="geometry">
            <mxPoint x="590" y="369" as="sourcePoint" />
            <mxPoint x="640" y="369" as="targetPoint" />
          </mxGeometry>
        </mxCell>
        <mxCell id="W26PCS96gPGYHtIzpLVQ-28" value="" style="rounded=0;whiteSpace=wrap;html=1;" vertex="1" parent="1">
          <mxGeometry x="727" y="340" width="10" height="60" as="geometry" />
        </mxCell>
        <mxCell id="W26PCS96gPGYHtIzpLVQ-29" value="" style="rounded=0;whiteSpace=wrap;html=1;" vertex="1" parent="1">
          <mxGeometry x="743" y="340" width="10" height="60" as="geometry" />
        </mxCell>
        <mxCell id="W26PCS96gPGYHtIzpLVQ-30" value="" style="rounded=0;whiteSpace=wrap;html=1;" vertex="1" parent="1">
          <mxGeometry x="757" y="340" width="10" height="60" as="geometry" />
        </mxCell>
        <mxCell id="W26PCS96gPGYHtIzpLVQ-31" value="" style="rounded=0;whiteSpace=wrap;html=1;" vertex="1" parent="1">
          <mxGeometry x="773" y="340" width="10" height="60" as="geometry" />
        </mxCell>
        <mxCell id="W26PCS96gPGYHtIzpLVQ-32" value="" style="rounded=0;whiteSpace=wrap;html=1;" vertex="1" parent="1">
          <mxGeometry x="817" y="340" width="10" height="60" as="geometry" />
        </mxCell>
        <mxCell id="W26PCS96gPGYHtIzpLVQ-33" value="..." style="text;html=1;align=center;verticalAlign=middle;resizable=0;points=[];autosize=1;strokeColor=none;fillColor=none;" vertex="1" parent="1">
          <mxGeometry x="783" y="355" width="30" height="30" as="geometry" />
        </mxCell>
      </root>
    </mxGraphModel>
  </diagram>
</mxfile>
